<svg width="500" height="500" xmlns="http://www.w3.org/2000/svg" version="1.1" xml:space="preserve" clip-rule="evenodd">
 <g>
  <title>Layer 1</title>
  <circle cx="250" cy="250" r="210" fill="none" stroke="rgb(51,51,51)" stroke-width="8px" id="svg_1"/>
  <g id="svg_5">
   <path id="svg_6" d="m250,278c15.464,0 28,-12.536 28,-28c0,-15.464 -12.536,-28 -28,-28c-15.464,0 -28,12.536 -28,28c0,15.464 12.536,28 28,28z" fill="#0098EA"/>
   <path id="svg_7" d="m259.5603,237.6277l-19.1217,0c-3.5158,0 -5.7442,3.7925 -3.9754,6.8584l11.8012,20.4548c0.7701,1.3356 2.7,1.3356 3.4701,0l11.8036,-20.4548c1.7664,-3.061 -0.462,-6.8584 -3.9754,-6.8584l-0.0024,0zm-11.3055,21.1791l-2.5701,-4.9741l-6.2014,-11.0913c-0.4091,-0.7099 0.0962,-1.6196 0.9529,-1.6196l7.8162,0l0,17.6874l0.0024,-0.0024zm12.256,-16.0678l-6.199,11.0961l-2.5701,4.9717l0,-17.6874l7.8162,0c0.8567,0 1.362,0.9097 0.9529,1.6196z" fill="white"/>
  </g>
  <path id="svg_3" d="m249.52038,48.47303l0.745,-1.30375l0.745,1.30375l-1.49,0z" stroke-width="0.5px" stroke="rgb(240,70,34)" fill="rgb(240,70,34)"/>
  <path transform="rotate(-178.597 250.401 45.1562)" stroke="rgb(51,51,51)" id="svg_10" d="m246.5549,48.52703l3.84616,-6.74176l3.84616,6.74176l-7.69232,0z" stroke-width="8px" fill="none"/>
 </g>

</svg>